# xmcd CD database file
#
# Track frame offsets:
#	150
#	17892
#	28977
#	42975
#	60029
#	78112
#	96517
#	111311
#	131434
#	148705
#	161346
#	172190
#	188593
#	203448
#	220014
#	236406
#	252549
#	270217
#	290728
#	305660
#
# Disc length: 4336 seconds
#
# Revision: 0
# Processed by: cddbd v1.5.2PL0 Copyright (c) Steve Scherf et al.
# Submitted via: CDex 1.51
#
DISCID=1810ee14
DTITLE=Various Artist - 100 Country Hits Disk 3
DYEAR=2003
DGENRE=Country
TTITLE0=Man I Feel Like A Woman
TTITLE1=Chattahoochie
TTITLE2=I like It, I Like It
TTITLE3=She Couldn't Change Me
TTITLE4=I Breathe In, I Breathe Out
TTITLE5=You Won't Ever Be Lonely
TTITLE6=Ain't Nothing 'Bout You
TTITLE7=If You Ever Have Forever in Mind
TTITLE8=I Can Love You Like That
TTITLE9=Third Rock From The Sun
TTITLE10=Unbelievable
TTITLE11=The One
TTITLE12=I'm Gonna Miss Her (The Fishin' Song)
TTITLE13=I Would've Loved You Anyway
TTITLE14=There You'll Be
TTITLE15=Living and Living Well
TTITLE16=I Hope You Dance
TTITLE17=One of These Days
TTITLE18=My List
TTITLE19=Murder On Music Row
EXTD=YEAR: 2003
EXTT0=
EXTT1=
EXTT2=
EXTT3=
EXTT4=
EXTT5=
EXTT6=
EXTT7=
EXTT8=
EXTT9=
EXTT10=
EXTT11=
EXTT12=
EXTT13=
EXTT14=
EXTT15=
EXTT16=
EXTT17=
EXTT18=
EXTT19=
PLAYORDER=
